# xmcd CD database file
#
# Track frame offsets:
#	150
#	20289
#	42427
#	71953
#	90622
#
# Disc length: 1457 seconds
#
# Revision: 0
# Processed by: cddbd v1.5.2PL0 Copyright (c) Steve Scherf et al.
# Submitted via: CDex 1.51
#
DISCID=3d05af05
DTITLE=Gerry Joe Weise - Live In Paris
DYEAR=1994
DGENRE=Blues
TTITLE0=Blueswalker
TTITLE1=Southern Cross
TTITLE2=Broken Hill Blues
TTITLE3=Sidewater Cajun
TTITLE4=Who Is Calling
EXTD=YEAR: 1994
EXTT0=
EXTT1=
EXTT2=
EXTT3=
EXTT4=
PLAYORDER=
